v 0 0 0
v 4.745506322156954e-16 0 -15.789999961853027
v 4.745506322156954e-16 5.34499979019165 -15.789999961853027
v 0 5.34499979019165 0
v 0 5.34499979019165 0
v 2.2366918764808545e-16 5.34499979019165 -15.789999961853027
v 2.9986565113067627 6.947516441345215 -15.789999961853027
v 2.9986565113067627 6.947516441345215 0
v 2.996500015258789 6.900000095367432 0
v 2.996500015258789 6.900000095367432 -15.789999961853027
v 4.753499984741211 6.900000095367432 -15.789999961853027
v 4.753499984741211 6.900000095367432 0
vt 0 0
vt 1 0
vt 1 0.5
vt 0 0.5
vt 0 0.5
vt 1 0.5
vt 1 0.8356481790542603
vt 0 0.8356481790542603
vt 0 0.8356481194496155
vt 1 0.8356481194496155
vt 1 1
vt 0 1
vn 0.42157208919525146 0 5.2593632271224095e-17
vn 0.42157208919525146 0 5.2593632271224095e-17
vn 0.42157208919525146 0 5.2593632271224095e-17
vn 0.42157208919525146 0 5.2593632271224095e-17
vn 0.20389609038829803 -0.3815338909626007 5.396927664329163e-17
vn 0.20389609038829803 -0.3815338909626007 5.396927664329163e-17
vn 0.20389609038829803 -0.3815338909626007 5.396927664329163e-17
vn 0.20389609038829803 -0.3815338909626007 5.396927664329163e-17
vn 2.684576958604919e-17 -0.438424676656723 5.4696093777762377e-17
vn 2.684576958604919e-17 -0.438424676656723 5.4696093777762377e-17
vn 2.684576958604919e-17 -0.438424676656723 5.4696093777762377e-17
vn 2.684576958604919e-17 -0.438424676656723 5.4696093777762377e-17
f 1/1/1 2/2/2 3/3/3
f 3/3/3 4/4/4 1/1/1
f 5/5/5 6/6/6 7/7/7
f 7/7/7 8/8/8 5/5/5
f 9/9/9 10/10/10 11/11/11
f 11/11/11 12/12/12 9/9/9