v 7.75 0 -15.789999961853027
v 7.75 0 0
v 7.75 5.099999904632568 0
v 7.75 5.099999904632568 -15.789999961853027
v 7.75 5.099999904632568 -15.789999961853027
v 7.75 5.099999904632568 0
v 4.810227394104004 6.905612468719482 0
v 4.810227394104004 6.905612468719482 -15.789999961853027
vt 1 1
vt 0 1
vt 0 0.5
vt 1 0.5
vt 1 0.5
vt 0 0.5
vt 0 0.16435182094573975
vt 1 0.16435182094573975
vn -0.4231773018836975 0 5.279388938880073e-17
vn -0.4231773018836975 0 5.279388938880073e-17
vn -0.4231773018836975 0 5.279388938880073e-17
vn -0.4231773018836975 0 5.279388938880073e-17
vn -0.22628679871559143 -0.36842435598373413 5.394050399286459e-17
vn -0.22628679871559143 -0.36842435598373413 5.394050399286459e-17
vn -0.22628679871559143 -0.36842435598373413 5.394050399286459e-17
vn -0.22628679871559143 -0.36842435598373413 5.394050399286459e-17
f 1/1/1 2/2/2 3/3/3
f 3/3/3 4/4/4 1/1/1
f 5/5/5 6/6/6 7/7/7
f 7/7/7 8/8/8 5/5/5